# This file uses centimeters as units for non-parametric coordinates.

mtllib Table.mtl
g default
v -1.387400 1.168984 1.194036
v 1.768429 1.168983 1.194036
v -1.387400 1.275668 1.194037
v 1.768429 1.280825 1.194036
v -1.387400 1.275668 -1.461639
v 1.768429 1.275668 -1.461639
v -1.387400 1.168984 -1.461639
v 1.768429 1.168983 -1.461639
vt 0.375000 0.000000
vt 0.625000 0.000000
vt 0.375000 0.250000
vt 0.625000 0.250000
vt 0.375000 0.500000
vt 0.625000 0.500000
vt 0.375000 0.750000
vt 0.625000 0.750000
vt 0.375000 1.000000
vt 0.625000 1.000000
vt 0.875000 0.000000
vt 0.875000 0.250000
vt 0.125000 0.000000
vt 0.125000 0.250000
vn 0.000000 -0.000001 1.000000
vn 0.000000 -0.000001 1.000000
vn 0.000000 -0.000001 1.000000
vn 0.000000 -0.000001 1.000000
vn -0.000817 0.999999 -0.000971
vn -0.000817 0.999999 -0.000971
vn -0.000817 0.999999 -0.000971
vn -0.000817 0.999999 -0.000971
vn -0.000000 0.000001 -1.000000
vn -0.000000 0.000001 -1.000000
vn -0.000000 0.000001 -1.000000
vn -0.000000 0.000001 -1.000000
vn -0.000000 -1.000000 0.000000
vn -0.000000 -1.000000 0.000000
vn -0.000000 -1.000000 0.000000
vn -0.000000 -1.000000 0.000000
vn 1.000000 0.000000 -0.000000
vn 1.000000 0.000000 -0.000000
vn 1.000000 0.000000 -0.000000
vn 1.000000 0.000000 -0.000000
vn -1.000000 -0.000002 0.000000
vn -1.000000 -0.000002 0.000000
vn -1.000000 -0.000002 0.000000
vn -1.000000 -0.000002 0.000000
s off
g pCube1
usemtl initialShadingGroup
f 1/1/1 2/2/2 4/4/3 3/3/4
f 3/3/5 4/4/6 6/6/7 5/5/8
f 5/5/9 6/6/10 8/8/11 7/7/12
f 7/7/13 8/8/14 2/10/15 1/9/16
f 2/2/17 8/11/18 6/12/19 4/4/20
f 7/13/21 1/1/22 3/3/23 5/14/24
g default
v -1.260807 0.173154 1.093427
v -1.117266 0.173154 1.093427
v -1.260807 1.173154 1.093427
v -1.117266 1.173154 1.093427
v -1.260807 1.173154 0.970596
v -1.117266 1.173154 0.970596
v -1.260807 0.173154 0.970596
v -1.117266 0.173154 0.970596
v -1.140396 0.173154 1.093427
v -1.117266 0.673154 1.093427
v -1.117266 0.173154 1.032011
vt 0.375000 0.000000
vt 0.625000 0.000000
vt 0.375000 0.250000
vt 0.625000 0.250000
vt 0.375000 0.500000
vt 0.625000 0.500000
vt 0.375000 0.750000
vt 0.625000 0.750000
vt 0.375000 1.000000
vt 0.625000 1.000000
vt 0.875000 0.000000
vt 0.875000 0.250000
vt 0.125000 0.000000
vt 0.125000 0.250000
vt 0.500000 0.000000
vt 0.500000 1.000000
vt 0.625000 0.125000
vt 0.625000 0.875000
vt 0.750000 0.000000
vn 0.000000 0.000000 1.000000
vn 0.000000 0.000000 1.000000
vn 0.000000 0.000000 1.000000
vn 0.000000 1.000000 0.000000
vn 0.000000 1.000000 0.000000
vn 0.000000 1.000000 0.000000
vn 0.000000 1.000000 0.000000
vn 0.000000 0.000000 -1.000000
vn 0.000000 0.000000 -1.000000
vn 0.000000 0.000000 -1.000000
vn 0.000000 0.000000 -1.000000
vn 0.000000 -1.000000 0.000000
vn 0.000000 -1.000000 0.000000
vn 0.000000 -1.000000 0.000000
vn 1.000000 0.000000 0.000000
vn 1.000000 0.000000 0.000000
vn 1.000000 0.000000 0.000000
vn -1.000000 0.000000 0.000000
vn -1.000000 0.000000 0.000000
vn -1.000000 0.000000 0.000000
vn -1.000000 0.000000 0.000000
vn 1.000000 0.000000 0.000000
vn 1.000000 0.000000 0.000000
vn 1.000000 0.000000 0.000000
vn 0.000000 0.000000 1.000000
vn 0.000000 0.000000 1.000000
vn 0.000000 0.000000 1.000000
vn 0.000000 -1.000000 0.000000
vn 0.000000 -1.000000 0.000000
vn 0.000000 -1.000000 0.000000
s 1
g pCube2
usemtl initialShadingGroup
f 18/31/25 17/29/26 10/16/27
s off
f 11/17/28 12/18/29 14/20/30 13/19/31
f 13/19/32 14/20/33 16/22/34 15/21/35
s 2
f 17/30/36 19/32/37 10/24/38
s 3
f 10/16/39 19/33/40 18/31/41
s off
f 15/27/42 9/15/43 11/17/44 13/28/45
s 3
f 18/31/41 19/33/40 16/25/46 14/26/47 12/18/48
s 1
f 9/15/49 17/29/26 18/31/25 12/18/50 11/17/51
s 2
f 15/21/52 16/22/53 19/32/37 17/30/36 9/23/54
g default
v 1.524390 0.210318 -1.224762
v 1.665399 0.210318 -1.224762
v 1.524390 1.210318 -1.224762
v 1.665399 1.210318 -1.224762
v 1.524390 1.210318 -1.381012
v 1.665399 1.210318 -1.381013
v 1.524390 0.210318 -1.381012
v 1.665399 0.210318 -1.381012
vt 0.375000 0.000000
vt 0.625000 0.000000
vt 0.375000 0.250000
vt 0.625000 0.250000
vt 0.375000 0.500000
vt 0.625000 0.500000
vt 0.375000 0.750000
vt 0.625000 0.750000
vt 0.375000 1.000000
vt 0.625000 1.000000
vt 0.875000 0.000000
vt 0.875000 0.250000
vt 0.125000 0.000000
vt 0.125000 0.250000
vn 0.000000 0.000000 1.000000
vn 0.000000 0.000000 1.000000
vn 0.000000 0.000000 1.000000
vn 0.000000 0.000000 1.000000
vn 0.000000 1.000000 0.000000
vn 0.000000 1.000000 0.000000
vn 0.000000 1.000000 0.000000
vn 0.000000 1.000000 0.000000
vn -0.000001 -0.000000 -1.000000
vn -0.000001 -0.000000 -1.000000
vn -0.000001 -0.000000 -1.000000
vn -0.000001 -0.000000 -1.000000
vn 0.000000 -1.000000 0.000000
vn 0.000000 -1.000000 0.000000
vn 0.000000 -1.000000 0.000000
vn 0.000000 -1.000000 0.000000
vn 1.000000 0.000000 0.000000
vn 1.000000 0.000000 0.000000
vn 1.000000 0.000000 0.000000
vn 1.000000 0.000000 0.000000
vn -1.000000 0.000000 0.000000
vn -1.000000 0.000000 0.000000
vn -1.000000 0.000000 0.000000
vn -1.000000 0.000000 0.000000
s off
g pCube3
usemtl initialShadingGroup
f 20/34/55 21/35/56 23/37/57 22/36/58
f 22/36/59 23/37/60 25/39/61 24/38/62
f 24/38/63 25/39/64 27/41/65 26/40/66
f 26/40/67 27/41/68 21/43/69 20/42/70
f 21/35/71 27/44/72 25/45/73 23/37/74
f 26/46/75 20/34/76 22/36/77 24/47/78
g default
v -1.261813 0.170458 -1.209780
v -1.111813 0.170458 -1.209780
v -1.261813 1.170458 -1.209780
v -1.111813 1.170458 -1.209780
v -1.261813 1.170458 -1.359780
v -1.111813 1.170458 -1.359780
v -1.261813 0.170458 -1.359780
v -1.111813 0.170458 -1.359780
vt 0.375000 0.000000
vt 0.625000 0.000000
vt 0.375000 0.250000
vt 0.625000 0.250000
vt 0.375000 0.500000
vt 0.625000 0.500000
vt 0.375000 0.750000
vt 0.625000 0.750000
vt 0.375000 1.000000
vt 0.625000 1.000000
vt 0.875000 0.000000
vt 0.875000 0.250000
vt 0.125000 0.000000
vt 0.125000 0.250000
vn 0.000000 0.000000 1.000000
vn 0.000000 0.000000 1.000000
vn 0.000000 0.000000 1.000000
vn 0.000000 0.000000 1.000000
vn 0.000000 1.000000 0.000000
vn 0.000000 1.000000 0.000000
vn 0.000000 1.000000 0.000000
vn 0.000000 1.000000 0.000000
vn 0.000000 0.000000 -1.000000
vn 0.000000 0.000000 -1.000000
vn 0.000000 0.000000 -1.000000
vn 0.000000 0.000000 -1.000000
vn 0.000000 -1.000000 0.000000
vn 0.000000 -1.000000 0.000000
vn 0.000000 -1.000000 0.000000
vn 0.000000 -1.000000 0.000000
vn 1.000000 0.000000 0.000000
vn 1.000000 0.000000 0.000000
vn 1.000000 0.000000 0.000000
vn 1.000000 0.000000 0.000000
vn -1.000000 0.000000 0.000000
vn -1.000000 0.000000 0.000000
vn -1.000000 0.000000 0.000000
vn -1.000000 0.000000 0.000000
s off
g pCube4
usemtl initialShadingGroup
f 28/48/79 29/49/80 31/51/81 30/50/82
f 30/50/83 31/51/84 33/53/85 32/52/86
f 32/52/87 33/53/88 35/55/89 34/54/90
f 34/54/91 35/55/92 29/57/93 28/56/94
f 29/49/95 35/58/96 33/59/97 31/51/98
f 34/60/99 28/48/100 30/50/101 32/61/102
g default
v 1.496660 0.161807 1.084766
v 1.646660 0.161807 1.084766
v 1.496660 1.161807 1.084766
v 1.646660 1.161807 1.084766
v 1.496660 1.161807 0.934766
v 1.646660 1.161807 0.934766
v 1.496660 0.161807 0.934766
v 1.646660 0.161807 0.934766
vt 0.375000 0.000000
vt 0.625000 0.000000
vt 0.375000 0.250000
vt 0.625000 0.250000
vt 0.375000 0.500000
vt 0.625000 0.500000
vt 0.375000 0.750000
vt 0.625000 0.750000
vt 0.375000 1.000000
vt 0.625000 1.000000
vt 0.875000 0.000000
vt 0.875000 0.250000
vt 0.125000 0.000000
vt 0.125000 0.250000
vn 0.000000 0.000000 1.000000
vn 0.000000 0.000000 1.000000
vn 0.000000 0.000000 1.000000
vn 0.000000 0.000000 1.000000
vn 0.000000 1.000000 0.000000
vn 0.000000 1.000000 0.000000
vn 0.000000 1.000000 0.000000
vn 0.000000 1.000000 0.000000
vn 0.000000 0.000000 -1.000000
vn 0.000000 0.000000 -1.000000
vn 0.000000 0.000000 -1.000000
vn 0.000000 0.000000 -1.000000
vn 0.000000 -1.000000 0.000000
vn 0.000000 -1.000000 0.000000
vn 0.000000 -1.000000 0.000000
vn 0.000000 -1.000000 0.000000
vn 1.000000 0.000000 0.000000
vn 1.000000 0.000000 0.000000
vn 1.000000 0.000000 0.000000
vn 1.000000 0.000000 0.000000
vn -1.000000 0.000000 0.000000
vn -1.000000 0.000000 0.000000
vn -1.000000 0.000000 0.000000
vn -1.000000 0.000000 0.000000
s off
g pCube5
usemtl initialShadingGroup
f 36/62/103 37/63/104 39/65/105 38/64/106
f 38/64/107 39/65/108 41/67/109 40/66/110
f 40/66/111 41/67/112 43/69/113 42/68/114
f 42/68/115 43/69/116 37/71/117 36/70/118
f 37/63/119 43/72/120 41/73/121 39/65/122
f 42/74/123 36/62/124 38/64/125 40/75/126
